<svg width="16" height="16" viewBox="0 0 16 16" fill="none" xmlns="http://www.w3.org/2000/svg">
<path d="M7.53342 12.8666C7.41119 12.7444 7.34719 12.5888 7.34142 12.4C7.33564 12.2111 7.39408 12.0555 7.51675 11.9333L10.7834 8.66662H3.33342C3.14453 8.66662 2.98608 8.60262 2.85808 8.47462C2.73008 8.34662 2.66631 8.1884 2.66675 7.99995C2.66675 7.81106 2.73075 7.65262 2.85875 7.52462C2.98675 7.39662 3.14497 7.33284 3.33342 7.33328H10.7834L7.51675 4.06662C7.39453 3.9444 7.33608 3.78884 7.34142 3.59995C7.34675 3.41106 7.41075 3.25551 7.53342 3.13328C7.65564 3.01106 7.8112 2.94995 8.00008 2.94995C8.18897 2.94995 8.34453 3.01106 8.46675 3.13328L12.8668 7.53328C12.9334 7.58884 12.9808 7.6584 13.0088 7.74195C13.0368 7.82551 13.0505 7.91151 13.0501 7.99995C13.0501 8.08884 13.0363 8.17217 13.0088 8.24995C12.9812 8.32773 12.9339 8.39995 12.8668 8.46662L8.46675 12.8666C8.34453 12.9888 8.18897 13.05 8.00008 13.05C7.8112 13.05 7.65564 12.9888 7.53342 12.8666Z" fill="#FFAA05"/>
</svg>
